<?xml version="1.0" encoding="UTF-8" standalone="no"?>
<!DOCTYPE svg PUBLIC "-//W3C//DTD SVG 1.1//EN"
 "http://www.w3.org/Graphics/SVG/1.1/DTD/svg11.dtd">
<!-- Generated by graphviz version 2.44.0 (20200408.0750)
 -->
<!-- Title: Database Structure Pages: 1 -->
<svg width="1185pt" height="855pt"
 viewBox="0.00 0.00 1185.00 854.90" xmlns="http://www.w3.org/2000/svg" xmlns:xlink="http://www.w3.org/1999/xlink">
<g id="graph0" class="graph" transform="scale(1 1) rotate(0) translate(4 850.9)">
<title>Database Structure</title>
<polygon fill="white" stroke="transparent" points="-4,4 -4,-850.9 1181,-850.9 1181,4 -4,4"/>
<text text-anchor="middle" x="588.5" y="-831.7" font-family="Helvetica,sans-Serif" font-size="14.00">ER Diagram: yiibaidb</text>
<!-- customers -->
<g id="node1" class="node">
<title>customers</title>
<polygon fill="#dddddd" stroke="transparent" points="524,-614.96 524,-635.96 700,-635.96 700,-614.96 524,-614.96"/>
<polygon fill="none" stroke="black" points="524,-614.96 524,-635.96 700,-635.96 700,-614.96 524,-614.96"/>
<text text-anchor="start" x="584" y="-621.76" font-family="Times,serif" font-size="14.00">customers</text>
<polygon fill="none" stroke="black" points="524,-593.96 524,-614.96 700,-614.96 700,-593.96 524,-593.96"/>
<text text-anchor="start" x="553.5" y="-601.76" font-family="Times,serif" font-size="14.00">customerNumber:</text>
<text text-anchor="start" x="653.5" y="-601.76" font-family="Helvetica,sans-Serif" font-style="oblique" font-size="10.00">INT</text>
<polygon fill="none" stroke="black" points="524,-572.96 524,-593.96 700,-593.96 700,-572.96 524,-572.96"/>
<text text-anchor="start" x="543.5" y="-580.76" font-family="Times,serif" font-size="14.00">customerName:</text>
<text text-anchor="start" x="631.5" y="-580.76" font-family="Helvetica,sans-Serif" font-style="oblique" font-size="10.00">VARCHAR</text>
<polygon fill="none" stroke="black" points="524,-551.96 524,-572.96 700,-572.96 700,-551.96 524,-551.96"/>
<text text-anchor="start" x="537.5" y="-559.76" font-family="Times,serif" font-size="14.00">contactLastName:</text>
<text text-anchor="start" x="637.5" y="-559.76" font-family="Helvetica,sans-Serif" font-style="oblique" font-size="10.00">VARCHAR</text>
<polygon fill="none" stroke="black" points="524,-530.96 524,-551.96 700,-551.96 700,-530.96 524,-530.96"/>
<text text-anchor="start" x="537" y="-538.76" font-family="Times,serif" font-size="14.00">contactFirstName:</text>
<text text-anchor="start" x="638" y="-538.76" font-family="Helvetica,sans-Serif" font-style="oblique" font-size="10.00">VARCHAR</text>
<polygon fill="none" stroke="black" points="524,-509.96 524,-530.96 700,-530.96 700,-509.96 524,-509.96"/>
<text text-anchor="start" x="569" y="-517.76" font-family="Times,serif" font-size="14.00">phone:</text>
<text text-anchor="start" x="606" y="-517.76" font-family="Helvetica,sans-Serif" font-style="oblique" font-size="10.00">VARCHAR</text>
<polygon fill="none" stroke="black" points="524,-488.96 524,-509.96 700,-509.96 700,-488.96 524,-488.96"/>
<text text-anchor="start" x="549.5" y="-496.76" font-family="Times,serif" font-size="14.00">addressLine1:</text>
<text text-anchor="start" x="625.5" y="-496.76" font-family="Helvetica,sans-Serif" font-style="oblique" font-size="10.00">VARCHAR</text>
<polygon fill="none" stroke="black" points="524,-467.96 524,-488.96 700,-488.96 700,-467.96 524,-467.96"/>
<text text-anchor="start" x="549.5" y="-475.76" font-family="Times,serif" font-size="14.00">addressLine2:</text>
<text text-anchor="start" x="625.5" y="-475.76" font-family="Helvetica,sans-Serif" font-style="oblique" font-size="10.00">VARCHAR</text>
<polygon fill="none" stroke="black" points="524,-446.96 524,-467.96 700,-467.96 700,-446.96 524,-446.96"/>
<text text-anchor="start" x="575" y="-454.76" font-family="Times,serif" font-size="14.00">city:</text>
<text text-anchor="start" x="600" y="-454.76" font-family="Helvetica,sans-Serif" font-style="oblique" font-size="10.00">VARCHAR</text>
<polygon fill="none" stroke="black" points="524,-425.96 524,-446.96 700,-446.96 700,-425.96 524,-425.96"/>
<text text-anchor="start" x="573" y="-433.76" font-family="Times,serif" font-size="14.00">state:</text>
<text text-anchor="start" x="602" y="-433.76" font-family="Helvetica,sans-Serif" font-style="oblique" font-size="10.00">VARCHAR</text>
<polygon fill="none" stroke="black" points="524,-404.96 524,-425.96 700,-425.96 700,-404.96 524,-404.96"/>
<text text-anchor="start" x="555" y="-412.76" font-family="Times,serif" font-size="14.00">postalCode:</text>
<text text-anchor="start" x="620" y="-412.76" font-family="Helvetica,sans-Serif" font-style="oblique" font-size="10.00">VARCHAR</text>
<polygon fill="none" stroke="black" points="524,-383.96 524,-404.96 700,-404.96 700,-383.96 524,-383.96"/>
<text text-anchor="start" x="564.5" y="-391.76" font-family="Times,serif" font-size="14.00">country:</text>
<text text-anchor="start" x="610.5" y="-391.76" font-family="Helvetica,sans-Serif" font-style="oblique" font-size="10.00">VARCHAR</text>
<polygon fill="none" stroke="black" points="524,-362.96 524,-383.96 700,-383.96 700,-362.96 524,-362.96"/>
<text text-anchor="start" x="527" y="-370.76" font-family="Times,serif" font-size="14.00">salesRepEmployeeNumber:</text>
<text text-anchor="start" x="680" y="-370.76" font-family="Helvetica,sans-Serif" font-style="oblique" font-size="10.00">INT</text>
<polygon fill="none" stroke="black" points="524,-341.96 524,-362.96 700,-362.96 700,-341.96 524,-341.96"/>
<text text-anchor="start" x="556" y="-349.76" font-family="Times,serif" font-size="14.00">creditLimit:</text>
<text text-anchor="start" x="622" y="-349.76" font-family="Helvetica,sans-Serif" font-style="oblique" font-size="10.00">DECIMAL</text>
</g>
<!-- employees -->
<g id="node2" class="node">
<title>employees</title>
<polygon fill="#dddddd" stroke="transparent" points="806,-345.96 806,-366.96 932,-366.96 932,-345.96 806,-345.96"/>
<polygon fill="none" stroke="black" points="806,-345.96 806,-366.96 932,-366.96 932,-345.96 806,-345.96"/>
<text text-anchor="start" x="839.5" y="-352.76" font-family="Times,serif" font-size="14.00">employees</text>
<polygon fill="none" stroke="black" points="806,-324.96 806,-345.96 932,-345.96 932,-324.96 806,-324.96"/>
<text text-anchor="start" x="809" y="-332.76" font-family="Times,serif" font-size="14.00">employeeNumber:</text>
<text text-anchor="start" x="912" y="-332.76" font-family="Helvetica,sans-Serif" font-style="oblique" font-size="10.00">INT</text>
<polygon fill="none" stroke="black" points="806,-303.96 806,-324.96 932,-324.96 932,-303.96 806,-303.96"/>
<text text-anchor="start" x="816.5" y="-311.76" font-family="Times,serif" font-size="14.00">lastName:</text>
<text text-anchor="start" x="872.5" y="-311.76" font-family="Helvetica,sans-Serif" font-style="oblique" font-size="10.00">VARCHAR</text>
<polygon fill="none" stroke="black" points="806,-282.96 806,-303.96 932,-303.96 932,-282.96 806,-282.96"/>
<text text-anchor="start" x="815.5" y="-290.76" font-family="Times,serif" font-size="14.00">firstName:</text>
<text text-anchor="start" x="873.5" y="-290.76" font-family="Helvetica,sans-Serif" font-style="oblique" font-size="10.00">VARCHAR</text>
<polygon fill="none" stroke="black" points="806,-261.96 806,-282.96 932,-282.96 932,-261.96 806,-261.96"/>
<text text-anchor="start" x="816.5" y="-269.76" font-family="Times,serif" font-size="14.00">extension:</text>
<text text-anchor="start" x="872.5" y="-269.76" font-family="Helvetica,sans-Serif" font-style="oblique" font-size="10.00">VARCHAR</text>
<polygon fill="none" stroke="black" points="806,-240.96 806,-261.96 932,-261.96 932,-240.96 806,-240.96"/>
<text text-anchor="start" x="827" y="-248.76" font-family="Times,serif" font-size="14.00">email:</text>
<text text-anchor="start" x="862" y="-248.76" font-family="Helvetica,sans-Serif" font-style="oblique" font-size="10.00">VARCHAR</text>
<polygon fill="none" stroke="black" points="806,-219.96 806,-240.96 932,-240.96 932,-219.96 806,-219.96"/>
<text text-anchor="start" x="812.5" y="-227.76" font-family="Times,serif" font-size="14.00">officeCode:</text>
<text text-anchor="start" x="876.5" y="-227.76" font-family="Helvetica,sans-Serif" font-style="oblique" font-size="10.00">VARCHAR</text>
<polygon fill="none" stroke="black" points="806,-198.96 806,-219.96 932,-219.96 932,-198.96 806,-198.96"/>
<text text-anchor="start" x="832" y="-206.76" font-family="Times,serif" font-size="14.00">reportsTo:</text>
<text text-anchor="start" x="889" y="-206.76" font-family="Helvetica,sans-Serif" font-style="oblique" font-size="10.00">INT</text>
<polygon fill="none" stroke="black" points="806,-177.96 806,-198.96 932,-198.96 932,-177.96 806,-177.96"/>
<text text-anchor="start" x="821" y="-185.76" font-family="Times,serif" font-size="14.00">jobTitle:</text>
<text text-anchor="start" x="868" y="-185.76" font-family="Helvetica,sans-Serif" font-style="oblique" font-size="10.00">VARCHAR</text>
</g>
<!-- customers&#45;&gt;employees -->
<g id="edge1" class="edge">
<title>customers:salesRepEmployeeNumber&#45;&gt;employees:employeenumber</title>
<path fill="none" stroke="#444444" stroke-dasharray="5,2" d="M701,-372.96C746.51,-372.96 754.86,-341.11 795.01,-336.51"/>
<polygon fill="#444444" stroke="#444444" points="805.19,-339.45 795.02,-336.51 804.81,-332.46 805.19,-339.45"/>
</g>
<!-- employees&#45;&gt;employees -->
<g id="edge2" class="edge">
<title>employees:reportsTo&#45;&gt;employees:employeenumber</title>
<path fill="none" stroke="#444444" stroke-dasharray="5,2" d="M805.92,-204.9C746.1,-205.61 681,-220.2 681,-272.46 681,-321.75 738.93,-337.53 795.72,-339.75"/>
<polygon fill="#444444" stroke="#444444" points="805.83,-343.51 795.93,-339.75 806.01,-336.51 805.83,-343.51"/>
</g>
<!-- offices -->
<g id="node4" class="node">
<title>offices</title>
<polygon fill="#dddddd" stroke="transparent" points="1038,-215.96 1038,-236.96 1169,-236.96 1169,-215.96 1038,-215.96"/>
<polygon fill="none" stroke="black" points="1038,-215.96 1038,-236.96 1169,-236.96 1169,-215.96 1038,-215.96"/>
<text text-anchor="start" x="1085" y="-222.76" font-family="Times,serif" font-size="14.00">offices</text>
<polygon fill="none" stroke="black" points="1038,-194.96 1038,-215.96 1169,-215.96 1169,-194.96 1038,-194.96"/>
<text text-anchor="start" x="1047" y="-202.76" font-family="Times,serif" font-size="14.00">officeCode:</text>
<text text-anchor="start" x="1111" y="-202.76" font-family="Helvetica,sans-Serif" font-style="oblique" font-size="10.00">VARCHAR</text>
<polygon fill="none" stroke="black" points="1038,-173.96 1038,-194.96 1169,-194.96 1169,-173.96 1038,-173.96"/>
<text text-anchor="start" x="1066.5" y="-181.76" font-family="Times,serif" font-size="14.00">city:</text>
<text text-anchor="start" x="1091.5" y="-181.76" font-family="Helvetica,sans-Serif" font-style="oblique" font-size="10.00">VARCHAR</text>
<polygon fill="none" stroke="black" points="1038,-152.96 1038,-173.96 1169,-173.96 1169,-152.96 1038,-152.96"/>
<text text-anchor="start" x="1060.5" y="-160.76" font-family="Times,serif" font-size="14.00">phone:</text>
<text text-anchor="start" x="1097.5" y="-160.76" font-family="Helvetica,sans-Serif" font-style="oblique" font-size="10.00">VARCHAR</text>
<polygon fill="none" stroke="black" points="1038,-131.96 1038,-152.96 1169,-152.96 1169,-131.96 1038,-131.96"/>
<text text-anchor="start" x="1041" y="-139.76" font-family="Times,serif" font-size="14.00">addressLine1:</text>
<text text-anchor="start" x="1117" y="-139.76" font-family="Helvetica,sans-Serif" font-style="oblique" font-size="10.00">VARCHAR</text>
<polygon fill="none" stroke="black" points="1038,-110.96 1038,-131.96 1169,-131.96 1169,-110.96 1038,-110.96"/>
<text text-anchor="start" x="1041" y="-118.76" font-family="Times,serif" font-size="14.00">addressLine2:</text>
<text text-anchor="start" x="1117" y="-118.76" font-family="Helvetica,sans-Serif" font-style="oblique" font-size="10.00">VARCHAR</text>
<polygon fill="none" stroke="black" points="1038,-89.96 1038,-110.96 1169,-110.96 1169,-89.96 1038,-89.96"/>
<text text-anchor="start" x="1064.5" y="-97.76" font-family="Times,serif" font-size="14.00">state:</text>
<text text-anchor="start" x="1093.5" y="-97.76" font-family="Helvetica,sans-Serif" font-style="oblique" font-size="10.00">VARCHAR</text>
<polygon fill="none" stroke="black" points="1038,-68.96 1038,-89.96 1169,-89.96 1169,-68.96 1038,-68.96"/>
<text text-anchor="start" x="1056" y="-76.76" font-family="Times,serif" font-size="14.00">country:</text>
<text text-anchor="start" x="1102" y="-76.76" font-family="Helvetica,sans-Serif" font-style="oblique" font-size="10.00">VARCHAR</text>
<polygon fill="none" stroke="black" points="1038,-47.96 1038,-68.96 1169,-68.96 1169,-47.96 1038,-47.96"/>
<text text-anchor="start" x="1046.5" y="-55.76" font-family="Times,serif" font-size="14.00">postalCode:</text>
<text text-anchor="start" x="1111.5" y="-55.76" font-family="Helvetica,sans-Serif" font-style="oblique" font-size="10.00">VARCHAR</text>
<polygon fill="none" stroke="black" points="1038,-26.96 1038,-47.96 1169,-47.96 1169,-26.96 1038,-26.96"/>
<text text-anchor="start" x="1054.5" y="-34.76" font-family="Times,serif" font-size="14.00">territory:</text>
<text text-anchor="start" x="1103.5" y="-34.76" font-family="Helvetica,sans-Serif" font-style="oblique" font-size="10.00">VARCHAR</text>
</g>
<!-- employees&#45;&gt;offices -->
<g id="edge3" class="edge">
<title>employees:officeCode&#45;&gt;offices:officecode</title>
<path fill="none" stroke="#444444" stroke-dasharray="5,2" d="M933,-229.96C976.73,-229.96 987.9,-209.56 1026.55,-206.37"/>
<polygon fill="#444444" stroke="#444444" points="1037.14,-209.45 1027.01,-206.35 1036.86,-202.46 1037.14,-209.45"/>
</g>
<!-- items -->
<g id="node3" class="node">
<title>items</title>
<polygon fill="#dddddd" stroke="transparent" points="35,-665.96 35,-686.96 139,-686.96 139,-665.96 35,-665.96"/>
<polygon fill="none" stroke="black" points="35,-665.96 35,-686.96 139,-686.96 139,-665.96 35,-665.96"/>
<text text-anchor="start" x="71.5" y="-672.76" font-family="Times,serif" font-size="14.00">items</text>
<polygon fill="none" stroke="black" points="35,-644.96 35,-665.96 139,-665.96 139,-644.96 35,-644.96"/>
<text text-anchor="start" x="71" y="-652.76" font-family="Times,serif" font-size="14.00">id:</text>
<text text-anchor="start" x="86" y="-652.76" font-family="Helvetica,sans-Serif" font-style="oblique" font-size="10.00">INT</text>
<polygon fill="none" stroke="black" points="35,-623.96 35,-644.96 139,-644.96 139,-623.96 35,-623.96"/>
<text text-anchor="start" x="38" y="-631.76" font-family="Times,serif" font-size="14.00">item_no:</text>
<text text-anchor="start" x="87" y="-631.76" font-family="Helvetica,sans-Serif" font-style="oblique" font-size="10.00">VARCHAR</text>
</g>
<!-- orderdetails -->
<g id="node5" class="node">
<title>orderdetails</title>
<polygon fill="#dddddd" stroke="transparent" points="8,-551.96 8,-572.96 166,-572.96 166,-551.96 8,-551.96"/>
<polygon fill="none" stroke="black" points="8,-551.96 8,-572.96 166,-572.96 166,-551.96 8,-551.96"/>
<text text-anchor="start" x="55" y="-558.76" font-family="Times,serif" font-size="14.00">orderdetails</text>
<polygon fill="none" stroke="black" points="8,-530.96 8,-551.96 166,-551.96 166,-530.96 8,-530.96"/>
<text text-anchor="start" x="39.5" y="-538.76" font-family="Times,serif" font-size="14.00">orderNumber:</text>
<text text-anchor="start" x="117.5" y="-538.76" font-family="Helvetica,sans-Serif" font-style="oblique" font-size="10.00">INT</text>
<polygon fill="none" stroke="black" points="8,-509.96 8,-530.96 166,-530.96 166,-509.96 8,-509.96"/>
<text text-anchor="start" x="25.5" y="-517.76" font-family="Times,serif" font-size="14.00">productCode:</text>
<text text-anchor="start" x="99.5" y="-517.76" font-family="Helvetica,sans-Serif" font-style="oblique" font-size="10.00">VARCHAR</text>
<polygon fill="none" stroke="black" points="8,-488.96 8,-509.96 166,-509.96 166,-488.96 8,-488.96"/>
<text text-anchor="start" x="32" y="-496.76" font-family="Times,serif" font-size="14.00">quantityOrdered:</text>
<text text-anchor="start" x="125" y="-496.76" font-family="Helvetica,sans-Serif" font-style="oblique" font-size="10.00">INT</text>
<polygon fill="none" stroke="black" points="8,-467.96 8,-488.96 166,-488.96 166,-467.96 8,-467.96"/>
<text text-anchor="start" x="35" y="-475.76" font-family="Times,serif" font-size="14.00">priceEach:</text>
<text text-anchor="start" x="93" y="-475.76" font-family="Helvetica,sans-Serif" font-style="oblique" font-size="10.00">DECIMAL</text>
<polygon fill="none" stroke="black" points="8,-446.96 8,-467.96 166,-467.96 166,-446.96 8,-446.96"/>
<text text-anchor="start" x="11" y="-454.76" font-family="Times,serif" font-size="14.00">orderLineNumber:</text>
<text text-anchor="start" x="114" y="-454.76" font-family="Helvetica,sans-Serif" font-style="oblique" font-size="10.00">SMALLINT</text>
</g>
<!-- orders -->
<g id="node6" class="node">
<title>orders</title>
<polygon fill="#dddddd" stroke="transparent" points="284,-780.96 284,-801.96 407,-801.96 407,-780.96 284,-780.96"/>
<polygon fill="none" stroke="black" points="284,-780.96 284,-801.96 407,-801.96 407,-780.96 284,-780.96"/>
<text text-anchor="start" x="328.5" y="-787.76" font-family="Times,serif" font-size="14.00">orders</text>
<polygon fill="none" stroke="black" points="284,-759.96 284,-780.96 407,-780.96 407,-759.96 284,-759.96"/>
<text text-anchor="start" x="298" y="-767.76" font-family="Times,serif" font-size="14.00">orderNumber:</text>
<text text-anchor="start" x="376" y="-767.76" font-family="Helvetica,sans-Serif" font-style="oblique" font-size="10.00">INT</text>
<polygon fill="none" stroke="black" points="284,-738.96 284,-759.96 407,-759.96 407,-738.96 284,-738.96"/>
<text text-anchor="start" x="303" y="-746.76" font-family="Times,serif" font-size="14.00">orderDate:</text>
<text text-anchor="start" x="361" y="-746.76" font-family="Helvetica,sans-Serif" font-style="oblique" font-size="10.00">DATE</text>
<polygon fill="none" stroke="black" points="284,-717.96 284,-738.96 407,-738.96 407,-717.96 284,-717.96"/>
<text text-anchor="start" x="294.5" y="-725.76" font-family="Times,serif" font-size="14.00">requiredDate:</text>
<text text-anchor="start" x="369.5" y="-725.76" font-family="Helvetica,sans-Serif" font-style="oblique" font-size="10.00">DATE</text>
<polygon fill="none" stroke="black" points="284,-696.96 284,-717.96 407,-717.96 407,-696.96 284,-696.96"/>
<text text-anchor="start" x="296" y="-704.76" font-family="Times,serif" font-size="14.00">shippedDate:</text>
<text text-anchor="start" x="368" y="-704.76" font-family="Helvetica,sans-Serif" font-style="oblique" font-size="10.00">DATE</text>
<polygon fill="none" stroke="black" points="284,-675.96 284,-696.96 407,-696.96 407,-675.96 284,-675.96"/>
<text text-anchor="start" x="303.5" y="-683.76" font-family="Times,serif" font-size="14.00">status:</text>
<text text-anchor="start" x="338.5" y="-683.76" font-family="Helvetica,sans-Serif" font-style="oblique" font-size="10.00">VARCHAR</text>
<polygon fill="none" stroke="black" points="284,-654.96 284,-675.96 407,-675.96 407,-654.96 284,-654.96"/>
<text text-anchor="start" x="302" y="-662.76" font-family="Times,serif" font-size="14.00">comments:</text>
<text text-anchor="start" x="363" y="-662.76" font-family="Helvetica,sans-Serif" font-style="oblique" font-size="10.00">TEXT</text>
<polygon fill="none" stroke="black" points="284,-633.96 284,-654.96 407,-654.96 407,-633.96 284,-633.96"/>
<text text-anchor="start" x="287" y="-641.76" font-family="Times,serif" font-size="14.00">customerNumber:</text>
<text text-anchor="start" x="387" y="-641.76" font-family="Helvetica,sans-Serif" font-style="oblique" font-size="10.00">INT</text>
</g>
<!-- orderdetails&#45;&gt;orders -->
<g id="edge4" class="edge">
<title>orderdetails:orderNumber&#45;&gt;orders:ordernumber</title>
<path fill="none" stroke="#444444" stroke-dasharray="5,2" d="M167,-541.96C277.53,-541.96 175.7,-756.87 272.95,-770.3"/>
<polygon fill="#444444" stroke="#444444" points="282.77,-774.45 273.02,-770.3 283.23,-767.46 282.77,-774.45"/>
</g>
<!-- products -->
<g id="node9" class="node">
<title>products</title>
<polygon fill="#dddddd" stroke="transparent" points="272,-334.96 272,-355.96 418,-355.96 418,-334.96 272,-334.96"/>
<polygon fill="none" stroke="black" points="272,-334.96 272,-355.96 418,-355.96 418,-334.96 272,-334.96"/>
<text text-anchor="start" x="321.5" y="-341.76" font-family="Times,serif" font-size="14.00">products</text>
<polygon fill="none" stroke="black" points="272,-313.96 272,-334.96 418,-334.96 418,-313.96 272,-313.96"/>
<text text-anchor="start" x="283.5" y="-321.76" font-family="Times,serif" font-size="14.00">productCode:</text>
<text text-anchor="start" x="357.5" y="-321.76" font-family="Helvetica,sans-Serif" font-style="oblique" font-size="10.00">VARCHAR</text>
<polygon fill="none" stroke="black" points="272,-292.96 272,-313.96 418,-313.96 418,-292.96 272,-292.96"/>
<text text-anchor="start" x="281" y="-300.76" font-family="Times,serif" font-size="14.00">productName:</text>
<text text-anchor="start" x="360" y="-300.76" font-family="Helvetica,sans-Serif" font-style="oblique" font-size="10.00">VARCHAR</text>
<polygon fill="none" stroke="black" points="272,-271.96 272,-292.96 418,-292.96 418,-271.96 272,-271.96"/>
<text text-anchor="start" x="285.5" y="-279.76" font-family="Times,serif" font-size="14.00">productLine:</text>
<text text-anchor="start" x="355.5" y="-279.76" font-family="Helvetica,sans-Serif" font-style="oblique" font-size="10.00">VARCHAR</text>
<polygon fill="none" stroke="black" points="272,-250.96 272,-271.96 418,-271.96 418,-250.96 272,-250.96"/>
<text text-anchor="start" x="283" y="-258.76" font-family="Times,serif" font-size="14.00">productScale:</text>
<text text-anchor="start" x="358" y="-258.76" font-family="Helvetica,sans-Serif" font-style="oblique" font-size="10.00">VARCHAR</text>
<polygon fill="none" stroke="black" points="272,-229.96 272,-250.96 418,-250.96 418,-229.96 272,-229.96"/>
<text text-anchor="start" x="278" y="-237.76" font-family="Times,serif" font-size="14.00">productVendor:</text>
<text text-anchor="start" x="363" y="-237.76" font-family="Helvetica,sans-Serif" font-style="oblique" font-size="10.00">VARCHAR</text>
<polygon fill="none" stroke="black" points="272,-208.96 272,-229.96 418,-229.96 418,-208.96 272,-208.96"/>
<text text-anchor="start" x="277.5" y="-216.76" font-family="Times,serif" font-size="14.00">productDescription:</text>
<text text-anchor="start" x="386.5" y="-216.76" font-family="Helvetica,sans-Serif" font-style="oblique" font-size="10.00">TEXT</text>
<polygon fill="none" stroke="black" points="272,-187.96 272,-208.96 418,-208.96 418,-187.96 272,-187.96"/>
<text text-anchor="start" x="275" y="-195.76" font-family="Times,serif" font-size="14.00">quantityInStock:</text>
<text text-anchor="start" x="366" y="-195.76" font-family="Helvetica,sans-Serif" font-style="oblique" font-size="10.00">SMALLINT</text>
<polygon fill="none" stroke="black" points="272,-166.96 272,-187.96 418,-187.96 418,-166.96 272,-166.96"/>
<text text-anchor="start" x="296" y="-174.76" font-family="Times,serif" font-size="14.00">buyPrice:</text>
<text text-anchor="start" x="348" y="-174.76" font-family="Helvetica,sans-Serif" font-style="oblique" font-size="10.00">DECIMAL</text>
<polygon fill="none" stroke="black" points="272,-145.96 272,-166.96 418,-166.96 418,-145.96 272,-145.96"/>
<text text-anchor="start" x="301.5" y="-153.76" font-family="Times,serif" font-size="14.00">MSRP:</text>
<text text-anchor="start" x="342.5" y="-153.76" font-family="Helvetica,sans-Serif" font-style="oblique" font-size="10.00">DECIMAL</text>
</g>
<!-- orderdetails&#45;&gt;products -->
<g id="edge5" class="edge">
<title>orderdetails:productCode&#45;&gt;products:productcode</title>
<path fill="none" stroke="#444444" stroke-dasharray="5,2" d="M167,-520.96C261.96,-520.96 179.04,-339.23 260.79,-325.74"/>
<polygon fill="#444444" stroke="#444444" points="271.27,-328.44 261.03,-325.73 270.73,-321.47 271.27,-328.44"/>
</g>
<!-- orders&#45;&gt;customers -->
<g id="edge6" class="edge">
<title>orders:customerNumber&#45;&gt;customers:customernumber</title>
<path fill="none" stroke="#444444" stroke-dasharray="5,2" d="M408,-643.96C458.39,-643.96 467.89,-609.96 512.84,-605.45"/>
<polygon fill="#444444" stroke="#444444" points="523.17,-608.45 513.01,-605.44 522.83,-601.46 523.17,-608.45"/>
</g>
<!-- payments -->
<g id="node7" class="node">
<title>payments</title>
<polygon fill="#dddddd" stroke="transparent" points="277,-551.96 277,-572.96 413,-572.96 413,-551.96 277,-551.96"/>
<polygon fill="none" stroke="black" points="277,-551.96 277,-572.96 413,-572.96 413,-551.96 277,-551.96"/>
<text text-anchor="start" x="318.5" y="-558.76" font-family="Times,serif" font-size="14.00">payments</text>
<polygon fill="none" stroke="black" points="277,-530.96 277,-551.96 413,-551.96 413,-530.96 277,-530.96"/>
<text text-anchor="start" x="286.5" y="-538.76" font-family="Times,serif" font-size="14.00">customerNumber:</text>
<text text-anchor="start" x="386.5" y="-538.76" font-family="Helvetica,sans-Serif" font-style="oblique" font-size="10.00">INT</text>
<polygon fill="none" stroke="black" points="277,-509.96 277,-530.96 413,-530.96 413,-509.96 277,-509.96"/>
<text text-anchor="start" x="280" y="-517.76" font-family="Times,serif" font-size="14.00">checkNumber:</text>
<text text-anchor="start" x="361" y="-517.76" font-family="Helvetica,sans-Serif" font-style="oblique" font-size="10.00">VARCHAR</text>
<polygon fill="none" stroke="black" points="277,-488.96 277,-509.96 413,-509.96 413,-488.96 277,-488.96"/>
<text text-anchor="start" x="293" y="-496.76" font-family="Times,serif" font-size="14.00">paymentDate:</text>
<text text-anchor="start" x="370" y="-496.76" font-family="Helvetica,sans-Serif" font-style="oblique" font-size="10.00">DATE</text>
<polygon fill="none" stroke="black" points="277,-467.96 277,-488.96 413,-488.96 413,-467.96 277,-467.96"/>
<text text-anchor="start" x="299" y="-475.76" font-family="Times,serif" font-size="14.00">amount:</text>
<text text-anchor="start" x="345" y="-475.76" font-family="Helvetica,sans-Serif" font-style="oblique" font-size="10.00">DECIMAL</text>
</g>
<!-- payments&#45;&gt;customers -->
<g id="edge7" class="edge">
<title>payments:customerNumber&#45;&gt;customers:customernumber</title>
<path fill="none" stroke="#444444" stroke-dasharray="5,2" d="M414,-541.96C466.35,-541.96 467.18,-597.1 512.88,-604.2"/>
<polygon fill="#444444" stroke="#444444" points="522.74,-608.45 513.03,-604.21 523.26,-601.46 522.74,-608.45"/>
</g>
<!-- productlines -->
<g id="node8" class="node">
<title>productlines</title>
<polygon fill="#dddddd" stroke="transparent" points="529,-246.96 529,-267.96 695,-267.96 695,-246.96 529,-246.96"/>
<polygon fill="none" stroke="black" points="529,-246.96 529,-267.96 695,-267.96 695,-246.96 529,-246.96"/>
<text text-anchor="start" x="578.5" y="-253.76" font-family="Times,serif" font-size="14.00">productlines</text>
<polygon fill="none" stroke="black" points="529,-225.96 529,-246.96 695,-246.96 695,-225.96 529,-225.96"/>
<text text-anchor="start" x="552.5" y="-233.76" font-family="Times,serif" font-size="14.00">productLine:</text>
<text text-anchor="start" x="622.5" y="-233.76" font-family="Helvetica,sans-Serif" font-style="oblique" font-size="10.00">VARCHAR</text>
<polygon fill="none" stroke="black" points="529,-204.96 529,-225.96 695,-225.96 695,-204.96 529,-204.96"/>
<text text-anchor="start" x="543.5" y="-212.76" font-family="Times,serif" font-size="14.00">textDescription:</text>
<text text-anchor="start" x="631.5" y="-212.76" font-family="Helvetica,sans-Serif" font-style="oblique" font-size="10.00">VARCHAR</text>
<polygon fill="none" stroke="black" points="529,-183.96 529,-204.96 695,-204.96 695,-183.96 529,-183.96"/>
<text text-anchor="start" x="532" y="-191.76" font-family="Times,serif" font-size="14.00">htmlDescription:</text>
<text text-anchor="start" x="625" y="-191.76" font-family="Helvetica,sans-Serif" font-style="oblique" font-size="10.00">MEDIUMTEXT</text>
<polygon fill="none" stroke="black" points="529,-162.96 529,-183.96 695,-183.96 695,-162.96 529,-162.96"/>
<text text-anchor="start" x="559" y="-170.76" font-family="Times,serif" font-size="14.00">image:</text>
<text text-anchor="start" x="597" y="-170.76" font-family="Helvetica,sans-Serif" font-style="oblique" font-size="10.00">MEDIUMBLOB</text>
</g>
<!-- products&#45;&gt;productlines -->
<g id="edge8" class="edge">
<title>products:productLine&#45;&gt;productlines:productline</title>
<path fill="none" stroke="#444444" stroke-dasharray="5,2" d="M419,-282.96C467.99,-282.96 474.67,-243.03 517.87,-237.57"/>
<polygon fill="#444444" stroke="#444444" points="528.21,-240.45 518.02,-237.56 527.79,-233.46 528.21,-240.45"/>
</g>
<!-- tokens -->
<g id="node10" class="node">
<title>tokens</title>
<polygon fill="#dddddd" stroke="transparent" points="55,-751.96 55,-772.96 120,-772.96 120,-751.96 55,-751.96"/>
<polygon fill="none" stroke="black" points="55,-751.96 55,-772.96 120,-772.96 120,-751.96 55,-751.96"/>
<text text-anchor="start" x="69.5" y="-758.76" font-family="Times,serif" font-size="14.00">tokens</text>
<polygon fill="none" stroke="black" points="55,-730.96 55,-751.96 120,-751.96 120,-730.96 55,-730.96"/>
<text text-anchor="start" x="58" y="-738.76" font-family="Times,serif" font-size="14.00">s:</text>
<text text-anchor="start" x="68" y="-738.76" font-family="Helvetica,sans-Serif" font-style="oblique" font-size="10.00">VARCHAR</text>
</g>
</g>
</svg>
